HIERARCHY
ROOT Hips
{
	OFFSET 0.00000 0.00000 0.00000
	CHANNELS 6 Xposition Yposition Zposition Zrotation Yrotation Xrotation 
	JOINT LHipJoint
	{
		OFFSET 0 0 0
		CHANNELS 3 Zrotation Yrotation Xrotation
		JOINT LeftHip
		{
			OFFSET 1.54859 -1.61379 0.86856
			CHANNELS 3 Zrotation Yrotation Xrotation
			JOINT LeftKnee
			{
				OFFSET 2.25087 -6.18423 0.00000
				CHANNELS 3 Zrotation Yrotation Xrotation
				JOINT LeftAnkle
				{
					OFFSET 2.40328 -6.60297 0.00000
					CHANNELS 3 Zrotation Yrotation Xrotation
					JOINT LeftToe
					{
						OFFSET 0.17435 -0.47901 2.02453
						CHANNELS 3 Zrotation Yrotation Xrotation
						End Site
						{
							OFFSET 0.00000 -0.00000 1.04844
						}
					}
				}
			}
		}
	}
	JOINT RHipJoint
	{
		OFFSET 0 0 0
		CHANNELS 3 Zrotation Yrotation Xrotation
		JOINT RightHip
		{
			OFFSET -1.54669 -1.61379 0.86856
			CHANNELS 3 Zrotation Yrotation Xrotation
			JOINT RightKnee
			{
				OFFSET -2.28132 -6.26789 0.00000
				CHANNELS 3 Zrotation Yrotation Xrotation
				JOINT RightAnkle
				{
					OFFSET -2.51636 -6.91365 0.00000
					CHANNELS 3 Zrotation Yrotation Xrotation
					JOINT RightToe
					{
						OFFSET -0.15124 -0.41552 2.21090
						CHANNELS 3 Zrotation Yrotation Xrotation
						End Site
						{
							OFFSET -0.00000 -0.00000 1.13399
						}
					}
				}
			}
		}
	}
	JOINT lowerback
	{
		OFFSET 0 0 0
		CHANNELS 3 Zrotation Yrotation Xrotation
		JOINT Chest
		{
			OFFSET -0.04287 2.26161 -0.25690
			CHANNELS 3 Zrotation Yrotation Xrotation
			JOINT Chest2
			{
				OFFSET 0.02248 2.28395 -0.10140
				CHANNELS 3 Zrotation Yrotation Xrotation
				JOINT lowerneck
				{
					OFFSET 0 0 0
					CHANNELS 3 Zrotation Yrotation Xrotation
					JOINT Neck
					{
						OFFSET -0.11644 1.38496 0.11345
						CHANNELS 3 Zrotation Yrotation Xrotation
						JOINT Head
						{
							OFFSET 0.29383 1.36600 0.06642
							CHANNELS 3 Zrotation Yrotation Xrotation
							End Site
							{
								OFFSET 0.11075 1.41395 -0.00294
							}
						}
					}
				}
				JOINT LeftCollar
				{
					OFFSET 0 0 0
					CHANNELS 3 Zrotation Yrotation Xrotation
					JOINT LeftShoulder
					{
						OFFSET 3.51628 0.59542 -0.30346
CHANNELS 3 Zrotation Xrotation Yrotation
						JOINT LeftElbow
						{
OFFSET 0 -4.764050 0.000000
CHANNELS 3 Zrotation Xrotation Yrotation
							JOINT LeftWrist
							{
OFFSET 0 -3.137590 -0.000000
CHANNELS 3 Zrotation Xrotation Yrotation
								JOINT lhand
								{
									OFFSET 0 0 0
CHANNELS 3 Zrotation Xrotation Yrotation
									JOINT LFingers
									{
OFFSET 0 -0.732260 -0.000000
CHANNELS 3 Zrotation Xrotation Yrotation
										End Site
										{
OFFSET 0 -0.590370 -0.000000
										}
									}
								}
								JOINT LThumb
								{
OFFSET 0 0.000000 0.000000
CHANNELS 3 Zrotation Xrotation Yrotation
									End Site
									{
OFFSET 0 -0.599380 0.599380
									}
								}
							}
						}
					}
				}
				JOINT RightCollar
				{
					OFFSET 0 0 0
					CHANNELS 3 Zrotation Yrotation Xrotation
					JOINT RightShoulder
					{
						OFFSET -3.30990 0.84213 -0.36430
CHANNELS 3 Zrotation Xrotation Yrotation
						JOINT RightElbow
						{
OFFSET 0 -5.101610 -0.000000
CHANNELS 3 Zrotation Xrotation Yrotation
							JOINT RightWrist
							{
OFFSET 0 -3.232670 -0.000000
CHANNELS 3 Zrotation Xrotation Yrotation
								JOINT rhand
								{
									OFFSET 0 0 0
CHANNELS 3 Zrotation Xrotation Yrotation
									JOINT RFingers
									{
OFFSET 0 -0.702000 -0.000000
CHANNELS 3 Zrotation Xrotation Yrotation
										End Site
										{
OFFSET 0 -0.565970 -0.000000
										}
									}
								}
								JOINT RThumb
								{
OFFSET 0 0.000000 0.000000
CHANNELS 3 Zrotation Xrotation Yrotation
									End Site
									{
OFFSET 0 -0.574610 0.574610
									}
								}
							}
						}
					}
				}
			}
		}
	}
}
MOTION
Frames: 11
Frame Time: 0.008333333333333333
-37.653300 16.110200 -9.495800 5.336500 75.355900 11.258700 0.000000 0.000000 0.000000 -20.891500 4.899400 -37.483200 9.229500 16.953200 56.880500 0.184800 -1.056800 8.577800 0.071600 -1.726600 -4.750600 0.000000 0.000000 0.000000 10.760700 0.332000 -22.752500 -9.789400 -17.289700 58.782200 -0.268400 -5.141600 -13.034600 -1.306200 7.239900 -20.428200 -1.647900 2.246300 22.051500 -1.286400 3.256200 10.618000 -1.156000 1.893000 -0.720400 -2.210700 13.579000 -11.030900 -8.831200 18.552600 -14.284000 -2.122300 9.938100 -2.119400 -0.000000 0.000000 0.000000 18.641600 -4.423200 2.395400 62.430700 -56.923600 36.370900 6.395000 -24.441500 -25.543300 0.000000 0.000000 0.000000 -7.125000 0.000000 0.000000 -24.340400 53.960300 5.617300 -0.000000 0.000000 0.000000 -8.528700 -12.207700 10.044700 -33.556800 -43.753700 -13.805700 -42.327000 -41.294000 -30.958700 0.000000 0.000000 0.000000 7.125000 0.000000 -0.000000 -6.005300 -8.885500 -6.895900
-37.568050 16.137838 -9.510349 5.225131 75.226885 11.171463 0.000000 0.000000 0.000000 -20.699029 5.087985 -37.450187 9.263068 16.973972 56.995404 0.240397 -1.212138 9.652721 0.050916 -1.167944 -3.213726 0.000000 0.000000 0.000000 10.793947 0.144759 -22.750893 -9.686153 -17.228523 58.432755 -0.282745 -4.973612 -13.116754 -1.111743 6.620680 -18.623889 -1.483680 2.259885 21.786692 -1.417372 3.314309 10.708538 -1.382740 1.934544 -0.472625 -2.024890 13.697790 -11.072006 -8.909672 18.695405 -14.290398 -2.160689 10.004536 -2.085364 0.000000 0.000000 0.000000 18.763486 -4.243292 2.859778 62.253801 -56.880770 36.222778 5.551699 -25.829405 -25.806297 0.000000 0.000000 0.000000 -7.125000 0.000000 0.000000 -25.315901 54.040671 5.925259 0.000000 0.000000 0.000000 -8.273591 -12.046811 9.929153 -33.696186 -43.857736 -13.902374 -42.377104 -41.667986 -30.846688 0.000000 0.000000 0.000000 7.125000 0.000000 0.000000 -6.062883 -8.780149 -6.953191
-37.482799 16.165475 -9.524898 5.113762 75.097870 11.084226 0.000000 0.000000 0.000000 -20.506558 5.276570 -37.417173 9.296637 16.994744 57.110308 0.295994 -1.367476 10.727641 0.030231 -0.609288 -1.676852 0.000000 0.000000 0.000000 10.827194 -0.042482 -22.749286 -9.582906 -17.167346 58.083310 -0.297089 -4.805623 -13.198907 -0.917285 6.001461 -16.819577 -1.319461 2.273470 21.521884 -1.548345 3.372419 10.799077 -1.609481 1.976088 -0.224849 -1.839081 13.816579 -11.113112 -8.988145 18.838209 -14.296796 -2.199078 10.070971 -2.051328 0.000000 0.000000 0.000000 18.885373 -4.063384 3.324156 62.076902 -56.837941 36.074656 4.708397 -27.217310 -26.069293 0.000000 0.000000 0.000000 -7.125000 0.000000 0.000000 -26.291402 54.121043 6.233218 0.000000 0.000000 0.000000 -8.018483 -11.885922 9.813607 -33.835573 -43.961772 -13.999047 -42.427209 -42.041972 -30.734677 0.000000 0.000000 0.000000 7.125000 0.000000 0.000000 -6.120467 -8.674799 -7.010483
-37.397549 16.193113 -9.539448 5.002393 74.968855 10.996989 0.000000 0.000000 0.000000 -20.314088 5.465155 -37.384160 9.330205 17.015516 57.225212 0.351590 -1.522814 11.802562 0.009547 -0.050632 -0.139978 0.000000 0.000000 0.000000 10.860441 -0.229724 -22.747679 -9.479659 -17.106169 57.733865 -0.311434 -4.637635 -13.281061 -0.722828 5.382241 -15.015266 -1.155241 2.287055 21.257076 -1.679317 3.430528 10.889615 -1.836221 2.017633 0.022926 -1.653271 13.935369 -11.154218 -9.066617 18.981014 -14.303194 -2.237467 10.137407 -2.017292 0.000000 0.000000 0.000000 19.007259 -3.883475 3.788534 61.900003 -56.795111 35.926534 3.865096 -28.605215 -26.332290 0.000000 0.000000 0.000000 -7.125000 0.000000 0.000000 -27.266903 54.201414 6.541177 0.000000 0.000000 0.000000 -7.763374 -11.725033 9.698060 -33.974959 -44.065808 -14.095721 -42.477313 -42.415957 -30.622665 0.000000 0.000000 0.000000 7.125000 0.000000 0.000000 -6.178050 -8.569448 -7.067774
-37.312484 16.220464 -9.554014 4.906570 74.839368 10.912837 0.000000 0.000000 0.000000 -20.113608 5.643135 -37.349798 9.376083 17.043522 57.381679 0.407777 -1.767754 12.796632 0.007814 0.378411 1.040175 0.000000 0.000000 0.000000 10.887433 -0.429645 -22.750221 -9.388114 -17.050674 57.422257 -0.310216 -4.607978 -13.236652 -0.620585 5.037695 -14.016847 -1.089172 2.325730 21.119235 -1.735459 3.493055 10.896723 -1.938440 2.052230 0.107315 -1.543085 14.045357 -11.169981 -9.118719 19.116433 -14.236583 -2.255319 10.197925 -1.972516 0.000000 0.000000 0.000000 19.006479 -3.552944 4.221533 61.713695 -56.749212 35.770707 3.038083 -30.069771 -26.704819 0.000000 0.000000 0.000000 -7.125000 0.000000 0.000000 -28.310726 54.373377 6.957235 0.000000 0.000000 0.000000 -7.628808 -11.440213 9.652690 -34.116352 -44.170282 -14.194182 -42.516879 -42.831051 -30.513284 0.000000 0.000000 0.000000 7.125000 0.000000 0.000000 -6.229176 -8.462428 -7.117107
-37.227555 16.247605 -9.568592 4.822138 74.709535 10.830947 0.000000 0.000000 0.000000 -19.907260 5.813343 -37.314447 9.430978 17.076828 57.568599 0.464397 -2.078342 13.731465 0.019968 0.712488 1.958969 0.000000 0.000000 0.000000 10.909841 -0.638856 -22.755801 -9.305142 -16.999343 57.138372 -0.297595 -4.679672 -13.099516 -0.585907 4.894393 -13.608884 -1.095015 2.382788 21.074418 -1.736773 3.558819 10.842704 -1.949425 2.081738 0.071993 -1.488306 14.148896 -11.167177 -9.151498 19.246442 -14.116478 -2.258123 10.254106 -1.919870 0.000000 0.000000 0.000000 18.915824 -3.112055 4.631542 61.520494 -56.701065 35.609234 2.223004 -31.590489 -27.157598 0.000000 0.000000 0.000000 -7.125000 0.000000 0.000000 -29.404607 54.612446 7.452494 0.000000 0.000000 0.000000 -7.582560 -11.064591 9.658738 -34.259216 -44.275077 -14.293952 -42.548724 -43.276264 -30.405830 0.000000 0.000000 0.000000 7.125000 0.000000 0.000000 -6.275570 -8.354185 -7.160608
-37.142626 16.274746 -9.583171 4.737706 74.579702 10.749056 0.000000 0.000000 0.000000 -19.700912 5.983552 -37.279096 9.485874 17.110133 57.755519 0.521016 -2.388931 14.666298 0.032122 1.046566 2.877763 0.000000 0.000000 0.000000 10.932249 -0.848067 -22.761381 -9.222170 -16.948012 56.854486 -0.284974 -4.751367 -12.962379 -0.551228 4.751092 -13.200920 -1.100858 2.439846 21.029602 -1.738088 3.624583 10.788685 -1.960410 2.111245 0.036672 -1.433527 14.252435 -11.164372 -9.184278 19.376450 -13.996374 -2.260928 10.310287 -1.867224 0.000000 0.000000 0.000000 18.825168 -2.671166 5.041550 61.327293 -56.652919 35.447760 1.407924 -33.111207 -27.610378 0.000000 0.000000 0.000000 -7.125000 0.000000 0.000000 -30.498489 54.851516 7.947753 0.000000 0.000000 0.000000 -7.536313 -10.688969 9.664785 -34.402079 -44.379873 -14.393723 -42.580568 -43.721477 -30.298375 0.000000 0.000000 0.000000 7.125000 0.000000 0.000000 -6.321964 -8.245943 -7.204110
-37.057945 16.300269 -9.597889 4.667386 74.456346 10.688752 0.000000 0.000000 0.000000 -19.492905 6.073148 -37.229660 9.542374 17.144245 57.947645 0.571451 -2.653340 15.488412 0.042743 1.334257 3.669012 0.000000 0.000000 0.000000 10.948099 -1.056945 -22.773871 -9.140042 -16.896924 56.573075 -0.270942 -4.834308 -12.810426 -0.520886 4.625429 -12.843225 -1.089582 2.486928 20.960824 -1.757180 3.681904 10.745880 -1.996299 2.138359 0.027665 -1.363170 14.351512 -11.169911 -9.213348 19.500098 -13.893272 -2.265301 10.363606 -1.818039 0.000000 0.000000 0.000000 18.754774 -2.257079 5.465171 61.109404 -56.598033 35.265778 0.576284 -34.637185 -28.036148 0.000000 0.000000 0.000000 -7.125000 0.000000 0.000000 -31.589999 55.062102 8.426811 0.000000 0.000000 0.000000 -7.464530 -10.339806 9.676540 -34.542674 -44.482753 -14.491992 -42.597922 -44.165933 -30.214333 0.000000 0.000000 0.000000 7.125000 0.000000 0.000000 -6.354146 -8.158209 -7.233134
-36.974622 16.316922 -9.613373 4.674427 74.368495 10.746774 0.000000 0.000000 0.000000 -19.275805 5.720870 -37.103011 9.607671 17.182780 58.168309 0.587987 -2.664617 15.692657 0.044963 1.367679 3.761128 0.000000 0.000000 0.000000 10.927999 -1.263994 -22.824238 -9.062533 -16.847170 56.305229 -0.249176 -4.978894 -12.577258 -0.514312 4.596447 -12.761071 -0.984465 2.479332 20.760698 -1.873721 3.692947 10.764549 -2.168699 2.152353 0.162903 -1.207423 14.426128 -11.221184 -9.222083 19.588884 -13.883368 -2.278273 10.401235 -1.787831 0.000000 0.000000 0.000000 18.795442 -1.989904 5.963410 60.756190 -56.506209 34.971375 -0.346132 -36.191997 -28.313870 0.000000 0.000000 0.000000 -7.125000 0.000000 0.000000 -32.668514 55.116559 8.817070 0.000000 0.000000 0.000000 -7.252777 -10.135678 9.719574 -34.670842 -44.575132 -14.582034 -42.535839 -44.606237 -30.258624 0.000000 0.000000 0.000000 7.125000 0.000000 0.000000 -6.308424 -8.182896 -7.182795
-36.891300 16.333575 -9.628857 4.681468 74.280645 10.804795 0.000000 0.000000 0.000000 -19.058706 5.368591 -36.976363 9.672967 17.221316 58.388972 0.604523 -2.675894 15.896901 0.047183 1.401101 3.853244 0.000000 0.000000 0.000000 10.907898 -1.471043 -22.874606 -8.985025 -16.797416 56.037382 -0.227411 -5.123481 -12.344090 -0.507739 4.567465 -12.678918 -0.879348 2.471736 20.560573 -1.990261 3.703991 10.783218 -2.341098 2.166347 0.298141 -1.051676 14.500744 -11.272457 -9.230819 19.677669 -13.873464 -2.291245 10.438864 -1.757622 0.000000 0.000000 0.000000 18.836110 -1.722730 6.461649 60.402977 -56.414385 34.676971 -1.268549 -37.746810 -28.591591 0.000000 0.000000 0.000000 -7.125000 0.000000 0.000000 -33.747028 55.171017 9.207329 0.000000 0.000000 0.000000 -7.041024 -9.931551 9.762608 -34.799010 -44.667511 -14.672076 -42.473756 -45.046542 -30.302914 0.000000 0.000000 0.000000 7.125000 0.000000 0.000000 -6.262702 -8.207583 -7.132457
-36.807978 16.350228 -9.644341 4.688509 74.192794 10.862817 0.000000 0.000000 0.000000 -18.841607 5.016312 -36.849714 9.738263 17.259851 58.609636 0.621059 -2.687171 16.101146 0.049404 1.434524 3.945360 0.000000 0.000000 0.000000 10.887798 -1.678092 -22.924973 -8.907517 -16.747662 55.769536 -0.205646 -5.268068 -12.110922 -0.501165 4.538484 -12.596764 -0.774231 2.464140 20.360448 -2.106801 3.715034 10.801886 -2.513498 2.180342 0.433379 -0.895929 14.575360 -11.323730 -9.239554 19.766455 -13.863560 -2.304216 10.476494 -1.727413 0.000000 0.000000 0.000000 18.876778 -1.455555 6.959887 60.049763 -56.322561 34.382568 -2.190965 -39.301622 -28.869312 0.000000 0.000000 0.000000 -7.125000 0.000000 0.000000 -34.825542 55.225474 9.597588 0.000000 0.000000 0.000000 -6.829271 -9.727423 9.805642 -34.927178 -44.759890 -14.762117 -42.411674 -45.486847 -30.347205 0.000000 0.000000 0.000000 7.125000 0.000000 0.000000 -6.216980 -8.232270 -7.082119
